<?xml version="1.0" standalone="no"?>
<!DOCTYPE svg PUBLIC "-//W3C//DTD SVG 20010904//EN"
 "http://www.w3.org/TR/2001/REC-SVG-20010904/DTD/svg10.dtd">
<svg version="1.0" xmlns="http://www.w3.org/2000/svg"
 width="896.000000pt" height="896.000000pt" viewBox="0 0 896.000000 896.000000"
 preserveAspectRatio="xMidYMid meet">
<metadata>
Created by potrace 1.14, written by Peter Selinger 2001-2017
</metadata>
<g transform="translate(0.000000,896.000000) scale(0.100000,-0.100000)"
fill="#000000" stroke="none">
<path d="M4437 8814 c-1 -1 -69 -5 -152 -8 -170 -7 -230 -11 -301 -20 -27 -3
-74 -8 -104 -11 -30 -3 -62 -7 -70 -10 -8 -2 -31 -6 -50 -9 -75 -11 -257 -48
-302 -61 -27 -8 -48 -11 -48 -8 0 3 -6 0 -14 -6 -8 -6 -18 -11 -22 -10 -5 2
-29 -4 -54 -11 -25 -7 -50 -14 -56 -16 -6 -1 -52 -16 -102 -33 -346 -118 -660
-281 -927 -482 -97 -73 -315 -280 -395 -374 -87 -103 -201 -270 -256 -375 -16
-30 -33 -58 -37 -61 -5 -3 -8 -9 -8 -13 1 -3 -10 -32 -25 -64 -57 -123 -130
-353 -148 -462 -3 -19 -8 -46 -11 -60 -3 -14 -8 -43 -10 -65 -2 -22 -7 -56
-10 -75 -24 -148 -17 -549 11 -685 3 -11 6 -36 8 -55 3 -19 7 -42 10 -50 3 -8
7 -27 10 -41 6 -36 46 -178 59 -209 6 -14 11 -27 12 -30 21 -82 170 -368 196
-378 5 -2 9 -8 9 -14 0 -6 10 -22 22 -37 13 -15 34 -43 48 -62 77 -107 345
-344 515 -455 33 -21 62 -41 65 -44 8 -8 41 -27 85 -51 22 -12 48 -28 58 -37
9 -8 17 -12 17 -8 0 4 12 -1 27 -12 63 -43 408 -201 518 -237 22 -8 78 -27
125 -43 143 -51 509 -154 625 -177 11 -2 128 -31 260 -64 132 -34 249 -63 260
-65 11 -3 20 -5 20 -6 0 -1 7 -3 15 -5 8 -1 89 -21 180 -44 91 -23 172 -43
180 -45 8 -2 22 -6 30 -9 8 -3 40 -13 70 -21 76 -20 192 -55 210 -62 8 -4 22
-8 31 -10 9 -2 29 -9 45 -15 16 -7 34 -13 40 -14 6 -2 53 -20 105 -40 163 -65
327 -152 419 -223 60 -46 200 -192 200 -208 0 -7 7 -17 16 -22 9 -5 15 -11 14
-13 -1 -2 9 -29 23 -59 22 -49 40 -103 54 -165 9 -41 10 -227 1 -273 -4 -26
-11 -60 -14 -77 -9 -56 -12 -65 -54 -160 -66 -150 -229 -325 -394 -425 -146
-88 -391 -178 -556 -204 -19 -3 -46 -8 -60 -11 -27 -5 -107 -15 -180 -21 -76
-6 -382 -6 -440 0 -119 13 -146 16 -170 21 -13 3 -40 7 -60 10 -159 24 -360
90 -512 168 -65 33 -118 64 -118 69 0 4 -6 8 -13 8 -8 0 -22 9 -32 20 -10 11
-22 20 -27 20 -24 0 -201 178 -261 262 -57 80 -120 203 -153 302 -14 39 -25
72 -25 73 0 2 -1 8 -4 15 -2 7 -6 27 -8 43 -3 17 -8 41 -11 55 -7 30 -19 124
-20 163 l-1 27 -858 0 -859 0 7 -127 c3 -71 8 -141 10 -158 2 -16 6 -50 9 -75
6 -49 26 -186 31 -210 56 -274 127 -483 233 -690 68 -133 85 -164 95 -168 4
-2 7 -8 7 -14 0 -12 61 -102 72 -106 4 -2 8 -8 8 -13 0 -6 5 -15 10 -22 19
-22 48 -58 82 -100 95 -118 248 -268 368 -360 30 -23 57 -45 60 -48 12 -15
224 -151 305 -195 121 -67 321 -161 355 -168 3 -1 30 -11 60 -23 69 -26 94
-36 100 -38 3 0 50 -15 105 -32 55 -17 114 -35 130 -39 40 -10 44 -11 50 -14
6 -3 4 -2 60 -15 47 -10 54 -12 58 -15 1 -1 11 -3 22 -4 11 -2 36 -6 55 -11
19 -4 44 -9 55 -10 11 -2 58 -10 103 -19 46 -9 109 -19 140 -22 30 -3 65 -8
76 -10 12 -2 50 -6 86 -10 36 -3 76 -7 90 -9 148 -26 802 -25 1075 0 99 9 152
15 175 18 14 2 50 7 80 11 48 6 183 30 245 42 62 13 82 17 100 20 11 2 45 10
75 19 30 8 67 17 81 20 14 2 54 14 90 26 35 11 69 22 74 23 21 5 61 18 80 26
11 5 54 21 95 36 41 15 91 34 110 43 19 8 37 15 40 16 16 2 246 120 248 127 2
4 9 8 15 8 7 0 47 23 90 50 43 28 82 50 88 50 5 0 9 4 9 8 0 4 15 16 33 27 17
10 37 23 42 27 217 169 366 314 486 473 46 60 159 231 159 241 0 2 11 22 25
43 13 22 27 51 31 65 3 14 10 26 15 26 5 0 9 4 9 9 0 5 8 26 17 47 9 22 17 41
18 44 1 3 6 16 12 30 152 367 205 866 137 1300 -3 19 -7 49 -10 65 -2 17 -11
57 -19 90 -8 33 -17 68 -20 79 -13 54 -59 188 -82 236 -14 30 -26 60 -27 66
-1 6 -10 23 -19 37 -10 15 -15 27 -13 27 14 0 -189 328 -219 355 -6 6 -24 28
-40 50 -46 64 -263 274 -350 340 -44 33 -89 68 -99 78 -11 9 -25 17 -32 17 -7
0 -14 4 -16 9 -4 11 -150 105 -243 156 -124 69 -297 151 -420 200 -66 26 -129
51 -140 55 -71 30 -379 130 -402 132 -5 0 -18 4 -31 9 -12 5 -33 11 -45 13
-12 3 -49 12 -82 20 -84 22 -476 117 -500 121 -11 3 -38 9 -60 14 -22 5 -78
19 -125 30 -47 11 -123 29 -170 41 -124 31 -123 30 -150 35 -14 2 -41 9 -60
15 -19 6 -46 13 -60 16 -30 6 -217 62 -245 74 -11 4 -49 18 -85 30 -65 22
-315 142 -380 182 -19 12 -64 44 -100 72 -147 116 -236 235 -284 381 -36 113
-40 361 -6 451 5 13 8 24 5 24 -8 0 45 123 79 183 81 147 221 269 413 363 62
30 121 57 132 59 11 2 28 8 38 13 14 7 71 23 136 38 4 1 8 2 10 4 3 3 27 7 77
14 25 4 52 9 60 11 70 19 429 32 560 21 102 -10 172 -18 193 -22 34 -7 91 -17
107 -19 18 -2 112 -30 195 -58 98 -33 284 -128 293 -149 2 -4 8 -8 14 -8 5 0
15 -6 23 -12 7 -7 32 -29 56 -48 24 -19 57 -50 73 -69 17 -19 38 -41 47 -50
30 -29 106 -147 134 -207 40 -87 42 -93 64 -169 21 -72 26 -97 37 -177 6 -46
8 -48 38 -48 47 -1 1575 -1 1625 0 l43 0 -5 98 c-9 138 -16 208 -28 277 -6 33
-13 72 -15 86 -3 14 -14 61 -24 105 -11 43 -22 88 -25 98 -14 57 -48 156 -81
233 -8 17 -14 34 -14 38 0 24 -172 336 -196 356 -8 6 -14 18 -14 25 0 8 -4 14
-10 14 -5 0 -10 5 -10 11 0 20 -166 216 -275 324 -61 61 -148 139 -192 174
-88 68 -249 181 -260 181 -3 0 -14 6 -22 14 -9 7 -43 28 -76 46 -90 50 -190
102 -190 100 0 -1 -31 12 -70 30 -38 18 -80 36 -92 41 -13 5 -33 13 -45 18
-84 33 -242 87 -281 95 -6 2 -19 5 -27 8 -40 15 -235 61 -300 72 -14 2 -36 7
-50 10 -40 9 -117 21 -202 30 -27 4 -67 8 -90 11 -125 15 -572 37 -581 29z"/>
</g>
</svg>
