<svg width="61" height="61" viewBox="0 0 61 61" fill="none" xmlns="http://www.w3.org/2000/svg">
<path d="M42.1036 48.6518H33.0241V40.6518C33.0241 37.8904 30.7657 35.6518 27.9799 35.6518H21.9269V30.1618L35.6269 20.4618C35.8488 20.306 35.998 20.068 36.0405 19.8018C36.0807 19.5364 36.0116 19.2662 35.8488 19.0518L32.8223 15.0518C32.4962 14.622 31.8856 14.5248 31.4402 14.8318L21.0996 21.9218C22.9281 18.507 21.6177 14.2694 18.1727 12.457C14.7278 10.6445 10.4527 11.9435 8.62434 15.3583C7.15408 18.1039 7.68662 21.4817 9.93179 23.6518H8.81198C8.52736 23.6524 8.25611 23.7723 8.06544 23.9818L1.54835 31.1618C-0.240954 33.1434 -0.152302 36.1665 1.75011 38.0418L7.08687 43.3618C7.29658 43.5699 7.58813 43.676 7.88385 43.6518C8.18335 43.6289 8.457 43.475 8.63039 43.2318L9.82082 41.5618V59.6518C9.82082 60.204 10.2725 60.6518 10.8297 60.6518H16.8827C17.4398 60.6518 17.8915 60.204 17.8915 59.6518V43.6518H24.9534V48.6518H21.9269C21.3697 48.6518 20.918 49.0995 20.918 49.6518V59.6518C20.918 60.204 21.3697 60.6518 21.9269 60.6518H42.1036C42.6608 60.6518 43.1125 60.204 43.1125 59.6518V49.6518C43.1125 49.0995 42.6609 48.6518 42.1036 48.6518ZM9.82082 18.6518C9.82082 15.8904 12.0792 13.6518 14.865 13.6518C17.6508 13.6518 19.9092 15.8904 19.9092 18.6518C19.9092 21.4132 17.6508 23.6518 14.865 23.6518C12.0792 23.6518 9.82082 21.4132 9.82082 18.6518ZM17.266 25.6518L15.8738 28.4118L14.4816 25.6518H17.266ZM9.82082 36.3618L8.20668 34.6518L9.82082 33.0518V36.3618V36.3618ZM16.8827 41.6518C16.3256 41.6518 15.8738 42.0995 15.8738 42.6518V58.6518H11.8385V30.6518C11.8365 30.248 11.5897 29.8852 11.213 29.7318C10.8373 29.5752 10.4035 29.658 10.1134 29.9418L6.07803 33.9418C5.69354 34.3307 5.69354 34.9529 6.07803 35.3418L9.37693 38.7518L7.67199 41.1118L3.1524 36.6518C1.99993 35.5213 1.951 33.6913 3.04143 32.5018L9.26596 25.6518H12.2219L14.976 31.1018C15.2301 31.5933 15.8379 31.7877 16.3339 31.5358C16.5221 31.4402 16.6754 31.2884 16.7717 31.1018L19.6873 25.3318L31.7933 17.0218L33.6193 19.4318L20.3329 28.8418C20.0683 29.0284 19.9107 29.3299 19.9092 29.6518V36.6518C19.9092 37.204 20.3609 37.6518 20.918 37.6518H27.9799C29.6514 37.6518 31.0064 38.9949 31.0064 40.6518V48.6518H26.9711V42.6518C26.9711 42.0995 26.5194 41.6518 25.9622 41.6518H16.8827ZM41.0948 58.6518H22.9357V50.6518H41.0948V58.6518Z" fill="#EB5757"/>
<path d="M59.2538 8.65186C55.3536 8.65186 52.1919 5.51786 52.1919 1.65186C52.1919 1.09961 51.7402 0.651855 51.1831 0.651855C50.6259 0.651855 50.1742 1.09961 50.1742 1.65186C50.1742 5.51786 47.0125 8.65186 43.1124 8.65186C42.5552 8.65186 42.1035 9.09961 42.1035 9.65186C42.1035 10.2041 42.5552 10.6519 43.1124 10.6519C47.0125 10.6519 50.1742 13.7859 50.1742 17.6519C50.1742 18.2041 50.6259 18.6519 51.1831 18.6519C51.7402 18.6519 52.1919 18.2041 52.1919 17.6519C52.1919 13.7859 55.3536 10.6519 59.2538 10.6519C59.8109 10.6519 60.2626 10.2041 60.2626 9.65186C60.2626 9.09961 59.811 8.65186 59.2538 8.65186ZM51.1831 13.5319C50.3133 11.8694 48.9461 10.5141 47.2688 9.65186C48.946 8.78961 50.3132 7.43436 51.1831 5.77186C52.0529 7.43436 53.4202 8.78961 55.0974 9.65186C53.4202 10.5141 52.0529 11.8694 51.1831 13.5319Z" fill="#EB5757"/>
<path d="M34.1677 25.8432L31.418 27.8418L32.611 29.4546L35.3608 27.456L34.1677 25.8432Z" fill="#EB5757"/>
<path d="M46.554 16.8438L36.4688 24.1797L37.6624 25.7921L47.7476 18.4562L46.554 16.8438Z" fill="#EB5757"/>
<path d="M42.5473 11.818L36.4956 15.8174L37.6148 17.4814L43.6665 13.482L42.5473 11.818Z" fill="#EB5757"/>
</svg>
