<svg width="84" height="51" viewBox="0 0 84 51" fill="none" xmlns="http://www.w3.org/2000/svg">
<path d="M83.6607 42.9069C83.5855 40.9241 82.8245 39.0929 81.518 37.7504C80.8611 37.0754 80.1918 36.4196 79.5116 35.7818V21.4519C79.5116 20.6863 79.2244 19.9558 78.7198 19.4385C75.7507 16.3941 72.4078 13.8199 68.7316 11.7392V8.4496C68.7316 6.94125 67.6385 5.71841 66.2902 5.71841C64.9418 5.71841 63.8488 6.94125 63.8488 8.4496V9.35199C63.2094 9.08451 62.5639 8.82669 61.9082 8.5858C58.9419 7.49569 55.7952 6.67341 52.4915 6.1219V3.38305C52.4915 1.8747 51.3984 0.651855 50.0501 0.651855C48.7018 0.651855 47.6087 1.8747 47.6087 3.38305V5.51539C45.786 5.36244 43.9237 5.2836 42.0226 5.2836C40.0571 5.2836 38.1331 5.36845 36.2513 5.53196V3.38305C36.2513 1.8747 35.1582 0.651855 33.8099 0.651855C32.4616 0.651855 31.3685 1.8747 31.3685 3.38305V6.15394C28.1301 6.70528 25.0425 7.51571 22.1298 8.58561C21.4131 8.8489 20.7081 9.13058 20.0113 9.42537V8.4496C20.0113 6.94125 18.9182 5.71841 17.5699 5.71841C16.2216 5.71841 15.1285 6.94125 15.1285 8.4496V11.8396C11.5206 13.9033 8.23918 16.4444 5.32333 19.4405C4.81959 19.9581 4.53313 20.6885 4.53346 21.4536L4.54111 35.7311C3.84254 36.3846 3.15602 37.0578 2.48203 37.7502C1.17572 39.0927 0.414814 40.9241 0.339619 42.9069C0.264424 44.8898 0.883889 46.7867 2.08376 48.2479C4.5608 51.2651 8.77043 51.4652 11.4678 48.6938C12.5806 47.5503 13.773 46.4454 15.0118 45.4101C22.8534 38.8573 32.1857 35.3936 42 35.3936C51.8143 35.3936 61.1466 38.8571 68.9882 45.4101C70.226 46.4445 71.4186 47.5492 72.5323 48.6938C73.7612 49.9565 75.3564 50.6519 77.024 50.6519C78.879 50.6519 80.6622 49.7755 81.9163 48.248C83.1164 46.7865 83.7359 44.8896 83.6607 42.9069ZM68.7317 17.9474C70.8357 19.3274 72.8033 20.9026 74.629 22.6751V31.6717C72.7278 30.2376 70.7587 28.9345 68.7317 27.7666V17.9474ZM52.4917 11.642C56.5787 12.3792 60.3678 13.5724 63.8489 15.216V25.2658C60.194 23.6176 56.3909 22.3851 52.4917 21.5927V11.642ZM36.2515 11.0065C38.1206 10.8345 40.0436 10.7458 42.0228 10.7458C43.9365 10.7458 45.7975 10.8294 47.6089 10.9907V20.8348C45.7534 20.6362 43.8823 20.534 42.0002 20.534C40.0706 20.534 38.1528 20.6426 36.2515 20.8512V11.0065V11.0065ZM20.0114 15.2971C23.4891 13.6349 27.278 12.4246 31.3687 11.6726V21.6202C27.4685 22.4237 23.6654 23.6687 20.0114 25.3288V15.2971V15.2971ZM15.1286 18.0614V27.8475C13.1689 28.9842 11.2637 30.2476 9.42195 31.6338L9.41707 22.6729C11.1879 20.9505 13.093 19.4132 15.1286 18.0614ZM78.3202 44.5529C77.9833 44.9635 77.523 45.1895 77.0242 45.1895C76.5831 45.1895 76.1611 45.0052 75.8357 44.6709C74.6008 43.4018 73.28 42.1782 71.9106 41.0337C63.2187 33.7702 52.8758 29.931 42.0002 29.931C31.1245 29.931 20.7816 33.7702 12.0896 41.0339C10.719 42.1793 9.39835 43.4031 8.1648 44.6707C7.45077 45.4047 6.33602 45.3519 5.67978 44.5527C5.36207 44.1658 5.19801 43.6635 5.21803 43.1385C5.23805 42.6134 5.43938 42.1285 5.78541 41.7731C15.6861 31.5994 28.5474 25.9966 42.0002 25.9966C55.4529 25.9966 68.3144 31.5994 78.2149 41.7731C78.5608 42.1285 78.7623 42.6134 78.7823 43.1385C78.8023 43.6635 78.6383 44.1658 78.3202 44.5529Z" fill="#F2C94C"/>
</svg>
