<svg width="0" height="0" class="hidden">
  <symbol fill="none" xmlns="http://www.w3.org/2000/svg" viewBox="0 0 21 21" id="instagram">
    <path d="M13.7813 10.5C13.7813 11.3702 13.4355 12.2048 12.8202 12.8202C12.2048 13.4355 11.3702 13.7813 10.5 13.7813C9.62976 13.7813 8.79516 13.4355 8.17981 12.8202C7.56445 12.2048 7.21875 11.3702 7.21875 10.5C7.21875 10.313 7.23844 10.1303 7.27234 9.95313H6.125V14.3248C6.125 14.6289 6.37109 14.875 6.67516 14.875H14.3259C14.4717 14.8747 14.6113 14.8166 14.7143 14.7135C14.8172 14.6103 14.875 14.4706 14.875 14.3248V9.95313H13.7277C13.7616 10.1303 13.7813 10.313 13.7813 10.5V10.5ZM10.5 12.6875C10.7873 12.6874 11.0718 12.6308 11.3373 12.5207C11.6027 12.4107 11.8439 12.2495 12.047 12.0462C12.2502 11.843 12.4113 11.6018 12.5212 11.3363C12.631 11.0708 12.6876 10.7862 12.6875 10.4989C12.6874 10.2116 12.6308 9.92706 12.5207 9.66162C12.4107 9.39618 12.2495 9.15501 12.0462 8.95188C11.843 8.74876 11.6018 8.58765 11.3363 8.47775C11.0708 8.36786 10.7862 8.31133 10.4989 8.31141C9.9186 8.31155 9.36212 8.54222 8.95188 8.95266C8.54165 9.3631 8.31126 9.91969 8.31141 10.5C8.31155 11.0803 8.54222 11.6368 8.95266 12.047C9.3631 12.4573 9.91969 12.6876 10.5 12.6875V12.6875ZM13.125 8.20312H14.4364C14.5235 8.20313 14.6071 8.16859 14.6688 8.10709C14.7305 8.04558 14.7653 7.96212 14.7656 7.875V6.56359C14.7656 6.47628 14.7309 6.39254 14.6692 6.3308C14.6075 6.26906 14.5237 6.23437 14.4364 6.23437H13.125C13.0377 6.23437 12.9539 6.26906 12.8922 6.3308C12.8305 6.39254 12.7958 6.47628 12.7958 6.56359V7.875C12.7969 8.05547 12.9445 8.20312 13.125 8.20312V8.20312ZM10.5 0C7.71523 0 5.04451 1.10625 3.07538 3.07538C1.10625 5.04451 0 7.71523 0 10.5C0 13.2848 1.10625 15.9555 3.07538 17.9246C5.04451 19.8938 7.71523 21 10.5 21C11.8789 21 13.2443 20.7284 14.5182 20.2007C15.7921 19.6731 16.9496 18.8996 17.9246 17.9246C18.8996 16.9496 19.6731 15.7921 20.2007 14.5182C20.7284 13.2443 21 11.8789 21 10.5C21 9.12112 20.7284 7.75574 20.2007 6.48182C19.6731 5.20791 18.8996 4.05039 17.9246 3.07538C16.9496 2.10036 15.7921 1.32694 14.5182 0.799265C13.2443 0.271591 11.8789 0 10.5 0V0ZM15.9688 14.7536C15.9688 15.4219 15.4219 15.9688 14.7536 15.9688H6.24641C5.57812 15.9688 5.03125 15.4219 5.03125 14.7536V6.24641C5.03125 5.57812 5.57812 5.03125 6.24641 5.03125H14.7536C15.4219 5.03125 15.9688 5.57812 15.9688 6.24641V14.7536V14.7536Z" fill="#E6E6E6"></path>
  </symbol>
  <symbol fill="none" xmlns="http://www.w3.org/2000/svg" viewBox="0 0 21 21" id="linked-in">
    <path d="M10.5 0C4.70094 0 0 4.70094 0 10.5C0 16.2991 4.70094 21 10.5 21C16.2991 21 21 16.2991 21 10.5C21 4.70094 16.2991 0 10.5 0ZM7.92969 14.852H5.80344V8.00953H7.92969V14.852ZM6.85344 7.16953C6.18187 7.16953 5.74766 6.69375 5.74766 6.10531C5.74766 5.50484 6.195 5.04328 6.88078 5.04328C7.56656 5.04328 7.98656 5.50484 7.99969 6.10531C7.99969 6.69375 7.56656 7.16953 6.85344 7.16953ZM15.6953 14.852H13.5691V11.06C13.5691 10.1773 13.2606 9.57797 12.4917 9.57797C11.9044 9.57797 11.5555 9.98375 11.4013 10.3742C11.3444 10.5131 11.3302 10.71 11.3302 10.9058V14.8509H9.20281V10.1916C9.20281 9.33734 9.17547 8.62313 9.14703 8.00844H10.9944L11.0917 8.95891H11.1344C11.4144 8.51266 12.1002 7.85422 13.2475 7.85422C14.6464 7.85422 15.6953 8.79156 15.6953 10.8063V14.852V14.852Z" fill="#E6E6E6"></path>
  </symbol>
  <symbol fill="none" xmlns="http://www.w3.org/2000/svg" viewBox="0 0 16 20" id="location">
    <path d="M8.00008 0C3.58908 0 8.14446e-05 3.589 8.14446e-05 7.995C-0.0289186 14.44 7.69608 19.784 8.00008 20C8.00008 20 16.0291 14.44 16.0001 8C16.0001 3.589 12.4111 0 8.00008 0ZM8.00008 12C5.79008 12 4.00008 10.21 4.00008 8C4.00008 5.79 5.79008 4 8.00008 4C10.2101 4 12.0001 5.79 12.0001 8C12.0001 10.21 10.2101 12 8.00008 12Z" fill="white"></path>
  </symbol>
  <symbol fill="none" xmlns="http://www.w3.org/2000/svg" viewBox="0 0 17 14" id="mail">
    <path d="M2.80002 0C2.05741 0 1.34521 0.295002 0.820108 0.820108C0.295002 1.34521 0 2.05741 0 2.80002V3.08143L8.40007 7.60486L16.8001 3.08283V2.80002C16.8001 2.05741 16.5051 1.34521 15.98 0.820108C15.4549 0.295002 14.7427 0 14.0001 0H2.80002Z" fill="white"></path>
    <path d="M16.8001 4.67139L8.73188 9.01562C8.6299 9.07052 8.51589 9.09926 8.40007 9.09926C8.28426 9.09926 8.17025 9.07052 8.06827 9.01562L0 4.67139V11.1996C0 11.9423 0.295002 12.6545 0.820108 13.1796C1.34521 13.7047 2.05741 13.9997 2.80002 13.9997H14.0001C14.7427 13.9997 15.4549 13.7047 15.98 13.1796C16.5051 12.6545 16.8001 11.9423 16.8001 11.1996V4.67139Z" fill="white"></path>
  </symbol>
  <symbol fill="none" xmlns="http://www.w3.org/2000/svg" viewBox="0 0 16 16" id="phone">
    <path d="M15.5437 11.3062L12.0437 9.80614C11.8941 9.74242 11.728 9.72899 11.5701 9.76788C11.4123 9.80677 11.2714 9.89587 11.1686 10.0218L9.61861 11.9156C7.18598 10.7686 5.22828 8.81089 4.08132 6.37827L5.97511 4.82824C6.10126 4.72564 6.19055 4.58473 6.22945 4.42684C6.26836 4.26896 6.25477 4.10269 6.19074 3.95322L4.69071 0.453162C4.62043 0.292037 4.49613 0.160484 4.33925 0.0811864C4.18237 0.00188914 4.00273 -0.0201818 3.83132 0.0187795L0.58126 0.768793C0.415998 0.806955 0.26855 0.900007 0.162983 1.03276C0.0574151 1.16552 -3.80697e-05 1.33013 1.8926e-08 1.49974C1.8926e-08 9.51551 6.49699 16 14.5003 16C14.6699 16.0001 14.8346 15.9427 14.9674 15.8371C15.1002 15.7315 15.1933 15.5841 15.2315 15.4187L15.9815 12.1687C16.0202 11.9964 15.9977 11.8161 15.9178 11.6587C15.8379 11.5012 15.7056 11.3766 15.5437 11.3062V11.3062Z" fill="white"></path>
  </symbol>
  <symbol fill="none" xmlns="http://www.w3.org/2000/svg" viewBox="0 0 21 21" id="pinterest">
    <path d="M10.5 0C4.70094 0 0 4.70094 0 10.5C0 16.2991 4.70094 21 10.5 21C16.2991 21 21 16.2991 21 10.5C21 4.70094 16.2991 0 10.5 0ZM11.2186 12.9883C10.5448 12.9369 10.2627 12.6033 9.73547 12.2839C9.44563 13.8053 9.09125 15.2644 8.04125 16.0267C7.71641 13.7255 8.51594 11.9995 8.88781 10.1653C8.25453 9.09891 8.96328 6.95406 10.2998 7.48125C11.9438 8.13312 8.87578 11.4461 10.9353 11.8606C13.0856 12.2916 13.9639 8.12875 12.6306 6.77688C10.7034 4.82234 7.02297 6.73203 7.47578 9.52984C7.58516 10.2134 8.29281 10.4213 7.75797 11.3652C6.52531 11.0917 6.15672 10.1194 6.20484 8.82328C6.28031 6.70141 8.11125 5.215 9.94656 5.01047C12.2686 4.75234 14.4473 5.8625 14.7492 8.04781C15.0872 10.5131 13.7003 13.1808 11.2186 12.9883Z" fill="#E6E6E6"></path>
  </symbol>
  <symbol fill="none" xmlns="http://www.w3.org/2000/svg" viewBox="0 0 49 56" id="play">
    <path d="M47 24.5359C49.6667 26.0755 49.6667 29.9245 47 31.4641L6.49999 54.8468C3.83333 56.3864 0.499997 54.4619 0.499997 51.3827L0.499999 4.61731C0.5 1.53811 3.83333 -0.38639 6.5 1.15321L47 24.5359Z" fill="white"></path>
  </symbol>
  <symbol fill="none" xmlns="http://www.w3.org/2000/svg" viewBox="0 0 21 21" id="twiter">
    <path d="M10.5 0C4.70156 0 0 4.70156 0 10.5C0 16.2984 4.70156 21 10.5 21C16.2984 21 21 16.2984 21 10.5C21 4.70156 16.2984 0 10.5 0ZM15.5461 7.91484C15.5531 8.025 15.5531 8.13984 15.5531 8.25234C15.5531 11.693 12.9328 15.6562 8.14453 15.6562C6.66797 15.6562 5.29922 15.2273 4.14609 14.4891C4.35703 14.5125 4.55859 14.5219 4.77422 14.5219C5.99297 14.5219 7.11328 14.1094 8.00625 13.4109C6.8625 13.3875 5.90156 12.6375 5.57344 11.6063C5.97422 11.6648 6.33516 11.6648 6.74766 11.5594C6.15873 11.4397 5.62939 11.1199 5.24957 10.6542C4.86974 10.1885 4.66286 9.60564 4.66406 9.00469V8.97187C5.00859 9.16641 5.41406 9.28594 5.83828 9.30234C5.48166 9.06467 5.1892 8.74268 4.98682 8.36491C4.78445 7.98715 4.67841 7.56528 4.67813 7.13672C4.67813 6.65156 4.80469 6.20859 5.03203 5.82422C5.68571 6.62891 6.5014 7.28705 7.42609 7.75586C8.35078 8.22466 9.36377 8.49364 10.3992 8.54531C10.0313 6.77578 11.3531 5.34375 12.9422 5.34375C13.6922 5.34375 14.3672 5.65781 14.843 6.16406C15.4312 6.05391 15.9937 5.83359 16.4953 5.53828C16.3008 6.14062 15.893 6.64922 15.3516 6.97031C15.8766 6.91406 16.3828 6.76875 16.8516 6.56484C16.4977 7.08516 16.0547 7.54688 15.5461 7.91484V7.91484Z" fill="#E6E6E6"></path>
  </symbol>
  <symbol fill="none" xmlns="http://www.w3.org/2000/svg" viewBox="0 0 23 16" id="youtube">
    <path d="M22.4181 2.46783C22.2851 1.9924 22.0316 1.55937 21.6821 1.21066C21.3327 0.861951 20.8991 0.609382 20.4234 0.47741C18.6376 2.28233e-05 11.4589 2.29387e-05 11.4589 2.29387e-05C11.4589 2.29387e-05 4.29385 -0.0114288 2.48951 0.47741C2.01456 0.609962 1.58183 0.862795 1.23315 1.21147C0.884472 1.56015 0.631638 1.99288 0.499086 2.46783C0.159977 4.29595 -0.00704011 6.15182 0.000227301 8.01111C-0.00308155 9.86145 0.163909 11.7082 0.499086 13.5279C0.632067 14.0031 0.884975 14.4362 1.23353 14.7855C1.58209 15.1348 2.01459 15.3886 2.48951 15.5226C4.27524 16 11.4589 16 11.4589 16C11.4589 16 18.6198 16 20.4234 15.5226C20.8991 15.3892 21.3324 15.1356 21.6817 14.7863C22.0311 14.4369 22.2847 14.0036 22.4181 13.5279C22.7466 11.7092 22.9069 9.85982 22.8955 8.01111C22.9069 6.15023 22.7502 4.29794 22.4181 2.46783V2.46783ZM9.16577 11.4373V4.56991L15.1413 8.01111L9.16577 11.4373Z" fill="#EB5757"></path>
  </symbol>
  <symbol fill="none" xmlns="http://www.w3.org/2000/svg" viewBox="0 0 18 17" id="arrow-left">
    <path d="M17 8.65186L1 8.65185" stroke="white" stroke-width="2" stroke-linecap="round" stroke-linejoin="round"></path>
    <path d="M8 15.6519L1 8.65185L8 1.65186" stroke="white" stroke-width="2" stroke-linecap="round" stroke-linejoin="round"></path>
  </symbol>
  <symbol fill="none" xmlns="http://www.w3.org/2000/svg" viewBox="0 0 18 17" id="arrow-right">
    <path d="M1 8.65186H17" stroke="white" stroke-width="2" stroke-linecap="round" stroke-linejoin="round"></path>
    <path d="M10 1.65186L17 8.65186L10 15.6519" stroke="white" stroke-width="2" stroke-linecap="round" stroke-linejoin="round"></path>
  </symbol>
  <symbol fill="none" xmlns="http://www.w3.org/2000/svg" viewBox="0 0 21 21" id="facebook">
    <path d="M21 10.5643C21 4.72966 16.2992 0 10.5013 0C4.70079 0.00131234 0 4.72966 0 10.5656C0 15.8373 3.8399 20.2073 8.85827 21V13.6181H6.19423V10.5656H8.86089V8.23622C8.86089 5.58924 10.4291 4.1273 12.8268 4.1273C13.9764 4.1273 15.1772 4.33333 15.1772 4.33333V6.93176H13.853C12.5499 6.93176 12.143 7.74672 12.143 8.58268V10.5643H15.0538L14.5892 13.6168H12.1417V20.9987C17.1601 20.206 21 15.836 21 10.5643Z" fill="#E6E6E6"></path>
  </symbol>
</svg>